<svg width="24" height="24" viewBox="0 0 24 24" fill="none" xmlns="http://www.w3.org/2000/svg">
<g clip-path="url(#clip0_156_223)">
<path d="M3 14C3 15.3 3.84 16.4 5 16.82V20H3V22H9V20H7V16.82C8.16 16.4 9 15.3 9 14V6H3V14ZM5 8H7V11H5V8ZM5 13H7V14C7 14.55 6.55 15 6 15C5.45 15 5 14.55 5 14V13Z" fill="#424242"/>
<path d="M20.64 8.54L19.68 8.22C19.27 8.08 19 7.7 19 7.27V3C19 2.45 18.55 2 18 2H15C14.45 2 14 2.45 14 3V7.28C14 7.71 13.73 8.09 13.32 8.23L12.36 8.55C11.55 8.83 11 9.59 11 10.45V20C11 21.1 11.9 22 13 22H20C21.1 22 22 21.1 22 20V10.44C22 9.58 21.45 8.82 20.64 8.54ZM16 4H17V5H16V4ZM20 20H13V18H20V20ZM20 16H13V14H20V16ZM20 12H13V10.44L13.95 10.12C15.18 9.72 16 8.57 16 7.28V7H17V7.28C17 8.57 17.82 9.72 19.05 10.13L20 10.44V12Z" fill="#424242"/>
</g>
<defs>
<clipPath id="clip0_156_223">
<rect width="24" height="24" fill="white"/>
</clipPath>
</defs>
</svg>
