<svg width="24" height="24" viewBox="0 0 24 24" fill="none" xmlns="http://www.w3.org/2000/svg">
<g clip-path="url(#clip0_157_51)">
<path d="M15.904 13.0506L13.7827 15.1719L19.7789 21.1681L21.9002 19.0468L15.904 13.0506Z" fill="#424242"/>
<path d="M17.5001 10C19.4301 10 21.0001 8.43 21.0001 6.5C21.0001 5.92 20.8401 5.38 20.5901 4.9L17.8901 7.6L16.4001 6.11L19.1001 3.41C18.6201 3.16 18.0801 3 17.5001 3C15.5701 3 14.0001 4.57 14.0001 6.5C14.0001 6.91 14.0801 7.3 14.2101 7.66L12.3601 9.51L10.5801 7.73L11.2901 7.02L9.8801 5.61L12.0001 3.49C10.8301 2.32 8.9301 2.32 7.7601 3.49L4.2201 7.03L5.6301 8.44H2.8101L2.1001 9.15L5.6401 12.69L6.3501 11.98V9.15L7.7601 10.56L8.4701 9.85L10.2501 11.63L2.8401 19.04L4.9601 21.16L16.3401 9.79C16.7001 9.92 17.0901 10 17.5001 10Z" fill="#424242"/>
</g>
<defs>
<clipPath id="clip0_157_51">
<rect width="24" height="24" fill="white"/>
</clipPath>
</defs>
</svg>
