<svg width="24" height="24" viewBox="0 0 24 24" fill="none" xmlns="http://www.w3.org/2000/svg">
<g clip-path="url(#clip0_156_212)">
<path d="M2 22L16 17L7 8L2 22ZM12.35 16.18L5.3 18.7L7.82 11.65L12.35 16.18Z" fill="#424242"/>
<path d="M14.53 12.53L20.12 6.94C20.61 6.45 21.4 6.45 21.89 6.94L22.48 7.53L23.54 6.47L22.95 5.88C21.88 4.81 20.13 4.81 19.06 5.88L13.47 11.47L14.53 12.53Z" fill="#424242"/>
<path d="M10.06 6.88L9.46997 7.47L10.53 8.53L11.12 7.94C12.19 6.87 12.19 5.12 11.12 4.05L10.53 3.46L9.46997 4.53L10.06 5.12C10.54 5.6 10.54 6.4 10.06 6.88Z" fill="#424242"/>
<path d="M17.06 11.88L15.47 13.47L16.53 14.53L18.12 12.94C18.61 12.45 19.4 12.45 19.89 12.94L21.5 14.55L22.56 13.49L20.95 11.88C19.87 10.81 18.13 10.81 17.06 11.88Z" fill="#424242"/>
<path d="M15.06 5.88L11.47 9.47L12.53 10.53L16.12 6.94C17.19 5.87 17.19 4.12 16.12 3.05L14.53 1.46L13.47 2.52L15.06 4.11C15.54 4.6 15.54 5.4 15.06 5.88Z" fill="#424242"/>
</g>
<defs>
<clipPath id="clip0_156_212">
<rect width="24" height="24" fill="white"/>
</clipPath>
</defs>
</svg>
