<svg width="20" height="20" viewBox="0 0 20 20" fill="none" xmlns="http://www.w3.org/2000/svg">
<path d="M10.0001 1.66667C5.40008 1.66667 1.66675 5.4 1.66675 10C1.66675 14.6 5.40008 18.3333 10.0001 18.3333C14.6001 18.3333 18.3334 14.6 18.3334 10C18.3334 5.4 14.6001 1.66667 10.0001 1.66667ZM13.3334 10.8333H10.8334V13.3333C10.8334 13.7917 10.4584 14.1667 10.0001 14.1667C9.54175 14.1667 9.16675 13.7917 9.16675 13.3333V10.8333H6.66675C6.20842 10.8333 5.83342 10.4583 5.83342 10C5.83342 9.54167 6.20842 9.16667 6.66675 9.16667H9.16675V6.66667C9.16675 6.20833 9.54175 5.83333 10.0001 5.83333C10.4584 5.83333 10.8334 6.20833 10.8334 6.66667V9.16667H13.3334C13.7917 9.16667 14.1667 9.54167 14.1667 10C14.1667 10.4583 13.7917 10.8333 13.3334 10.8333Z" fill="#424242"/>
</svg>
